<?xml version="1.0" standalone="no"?>
<svg xmlns:xlink="http://www.w3.org/1999/xlink" id="wave" style="transform:rotate(0deg); transition: 0.3s" viewBox="0 0 1440 100" version="1.1" xmlns="http://www.w3.org/2000/svg"><defs><linearGradient id="sw-gradient-0" x1="0" x2="0" y1="1" y2="0"><stop stop-color="rgba(125, 2, 23, 1)" offset="0%"/><stop stop-color="rgba(125, 2, 23, 1)" offset="100%"/></linearGradient></defs><path style="transform:translate(0, 0px); opacity:1" fill="url(#sw-gradient-0)" d="M0,30L34.3,40C68.6,50,137,70,206,76.7C274.3,83,343,77,411,65C480,53,549,37,617,35C685.7,33,754,47,823,56.7C891.4,67,960,73,1029,68.3C1097.1,63,1166,47,1234,43.3C1302.9,40,1371,50,1440,46.7C1508.6,43,1577,27,1646,16.7C1714.3,7,1783,3,1851,16.7C1920,30,1989,60,2057,75C2125.7,90,2194,90,2263,76.7C2331.4,63,2400,37,2469,21.7C2537.1,7,2606,3,2674,13.3C2742.9,23,2811,47,2880,51.7C2948.6,57,3017,43,3086,45C3154.3,47,3223,63,3291,68.3C3360,73,3429,67,3497,55C3565.7,43,3634,27,3703,21.7C3771.4,17,3840,23,3909,33.3C3977.1,43,4046,57,4114,51.7C4182.9,47,4251,23,4320,13.3C4388.6,3,4457,7,4526,18.3C4594.3,30,4663,50,4731,63.3C4800,77,4869,83,4903,86.7L4937.1,90L4937.1,100L4902.9,100C4868.6,100,4800,100,4731,100C4662.9,100,4594,100,4526,100C4457.1,100,4389,100,4320,100C4251.4,100,4183,100,4114,100C4045.7,100,3977,100,3909,100C3840,100,3771,100,3703,100C3634.3,100,3566,100,3497,100C3428.6,100,3360,100,3291,100C3222.9,100,3154,100,3086,100C3017.1,100,2949,100,2880,100C2811.4,100,2743,100,2674,100C2605.7,100,2537,100,2469,100C2400,100,2331,100,2263,100C2194.3,100,2126,100,2057,100C1988.6,100,1920,100,1851,100C1782.9,100,1714,100,1646,100C1577.1,100,1509,100,1440,100C1371.4,100,1303,100,1234,100C1165.7,100,1097,100,1029,100C960,100,891,100,823,100C754.3,100,686,100,617,100C548.6,100,480,100,411,100C342.9,100,274,100,206,100C137.1,100,69,100,34,100L0,100Z"/></svg>