<?xml version="1.0" standalone="no"?>
<svg xmlns:xlink="http://www.w3.org/1999/xlink" id="wave" style="transform:rotate(0deg); transition: 0.3s" viewBox="0 0 1440 100" version="1.1" xmlns="http://www.w3.org/2000/svg"><defs><linearGradient id="sw-gradient-0" x1="0" x2="0" y1="1" y2="0"><stop stop-color="rgba(255, 255, 255, 1)" offset="0%"/><stop stop-color="rgba(255, 255, 255, 1)" offset="100%"/></linearGradient></defs><path style="transform:translate(0, 0px); opacity:1" fill="url(#sw-gradient-0)" d="M0,40L48,43.3C96,47,192,53,288,51.7C384,50,480,40,576,43.3C672,47,768,63,864,61.7C960,60,1056,40,1152,30C1248,20,1344,20,1440,26.7C1536,33,1632,47,1728,43.3C1824,40,1920,20,2016,18.3C2112,17,2208,33,2304,33.3C2400,33,2496,17,2592,13.3C2688,10,2784,20,2880,28.3C2976,37,3072,43,3168,38.3C3264,33,3360,17,3456,8.3C3552,0,3648,0,3744,8.3C3840,17,3936,33,4032,36.7C4128,40,4224,30,4320,31.7C4416,33,4512,47,4608,53.3C4704,60,4800,60,4896,63.3C4992,67,5088,73,5184,65C5280,57,5376,33,5472,28.3C5568,23,5664,37,5760,35C5856,33,5952,17,6048,18.3C6144,20,6240,40,6336,53.3C6432,67,6528,73,6624,66.7C6720,60,6816,40,6864,30L6912,20L6912,100L6864,100C6816,100,6720,100,6624,100C6528,100,6432,100,6336,100C6240,100,6144,100,6048,100C5952,100,5856,100,5760,100C5664,100,5568,100,5472,100C5376,100,5280,100,5184,100C5088,100,4992,100,4896,100C4800,100,4704,100,4608,100C4512,100,4416,100,4320,100C4224,100,4128,100,4032,100C3936,100,3840,100,3744,100C3648,100,3552,100,3456,100C3360,100,3264,100,3168,100C3072,100,2976,100,2880,100C2784,100,2688,100,2592,100C2496,100,2400,100,2304,100C2208,100,2112,100,2016,100C1920,100,1824,100,1728,100C1632,100,1536,100,1440,100C1344,100,1248,100,1152,100C1056,100,960,100,864,100C768,100,672,100,576,100C480,100,384,100,288,100C192,100,96,100,48,100L0,100Z"/></svg>